 <svg width="24" height="24" stroke="currentColor" viewBox="0 0 24 24" fill="none"
                   xmlns="http://www.w3.org/2000/svg">
                <path fill-rule="evenodd" clip-rule="evenodd"
                      d="M5.25 3.75V20.25H18.75V3.75H5.25ZM4.5 1.5C4.10218 1.5 3.72064 1.65804 3.43934 1.93934C3.15804 2.22064 3 2.60218 3 3V21C3 21.3978 3.15804 21.7794 3.43934 22.0607C3.72064 22.342 4.10218 22.5 4.5 22.5H19.5C19.8978 22.5 20.2794 22.342 20.5607 22.0607C20.842 21.7794 21 21.3978 21 21V3C21 2.60218 20.842 2.22064 20.5607 1.93934C20.2794 1.65804 19.8978 1.5 19.5 1.5H4.5ZM12 16.5C12 16.2016 12.1185 15.9155 12.3295 15.7045C12.5405 15.4935 12.8266 15.375 13.125 15.375H15.75C16.0484 15.375 16.3345 15.4935 16.5455 15.7045C16.7565 15.9155 16.875 16.2016 16.875 16.5C16.875 16.7984 16.7565 17.0845 16.5455 17.2955C16.3345 17.5065 16.0484 17.625 15.75 17.625H13.125C12.8266 17.625 12.5405 17.5065 12.3295 17.2955C12.1185 17.0845 12 16.7984 12 16.5ZM9 18C9.39782 18 9.77936 17.842 10.0607 17.5607C10.342 17.2794 10.5 16.8978 10.5 16.5C10.5 16.1022 10.342 15.7206 10.0607 15.4393C9.77936 15.158 9.39782 15 9 15C8.60218 15 8.22064 15.158 7.93934 15.4393C7.65804 15.7206 7.5 16.1022 7.5 16.5C7.5 16.8978 7.65804 17.2794 7.93934 17.5607C8.22064 17.842 8.60218 18 9 18ZM12 12C12 11.7016 12.1185 11.4155 12.3295 11.2045C12.5405 10.9935 12.8266 10.875 13.125 10.875H15.75C16.0484 10.875 16.3345 10.9935 16.5455 11.2045C16.7565 11.4155 16.875 11.7016 16.875 12C16.875 12.2984 16.7565 12.5845 16.5455 12.7955C16.3345 13.0065 16.0484 13.125 15.75 13.125H13.125C12.8266 13.125 12.5405 13.0065 12.3295 12.7955C12.1185 12.5845 12 12.2984 12 12ZM9 13.5C9.39782 13.5 9.77936 13.342 10.0607 13.0607C10.342 12.7794 10.5 12.3978 10.5 12C10.5 11.6022 10.342 11.2206 10.0607 10.9393C9.77936 10.658 9.39782 10.5 9 10.5C8.60218 10.5 8.22064 10.658 7.93934 10.9393C7.65804 11.2206 7.5 11.6022 7.5 12C7.5 12.3978 7.65804 12.7794 7.93934 13.0607C8.22064 13.342 8.60218 13.5 9 13.5ZM12 7.5C12 7.20163 12.1185 6.91548 12.3295 6.7045C12.5405 6.49353 12.8266 6.375 13.125 6.375H15.75C16.0484 6.375 16.3345 6.49353 16.5455 6.7045C16.7565 6.91548 16.875 7.20163 16.875 7.5C16.875 7.79837 16.7565 8.08452 16.5455 8.2955C16.3345 8.50647 16.0484 8.625 15.75 8.625H13.125C12.8266 8.625 12.5405 8.50647 12.3295 8.2955C12.1185 8.08452 12 7.79837 12 7.5ZM9 9C9.39782 9 9.77936 8.84196 10.0607 8.56066C10.342 8.27936 10.5 7.89782 10.5 7.5C10.5 7.10218 10.342 6.72064 10.0607 6.43934C9.77936 6.15804 9.39782 6 9 6C8.60218 6 8.22064 6.15804 7.93934 6.43934C7.65804 6.72064 7.5 7.10218 7.5 7.5C7.5 7.89782 7.65804 8.27936 7.93934 8.56066C8.22064 8.84196 8.60218 9 9 9Z"
                      fill="white" />
              </svg>