   <svg width="24" height="24" viewBox="0 0 24 24" fill="none" xmlns="http://www.w3.org/2000/svg">
                      <path d="M15 7C14.7167 7 14.4793 6.904 14.288 6.712C14.0967 6.52 14.0007 6.28267 14 6C13.9993 5.71733 14.0953 5.48 14.288 5.288C14.4807 5.096 14.718 5 15 5H21C21.2833 5 21.521 5.096 21.713 5.288C21.905 5.48 22.0007 5.71733 22 6C21.9993 6.28267 21.9033 6.52033 21.712 6.713C21.5207 6.90567 21.2833 7.00133 21 7H15ZM15 11C14.7167 11 14.4793 10.904 14.288 10.712C14.0967 10.52 14.0007 10.2827 14 10C13.9993 9.71733 14.0953 9.48 14.288 9.288C14.4807 9.096 14.718 9 15 9H21C21.2833 9 21.521 9.096 21.713 9.288C21.905 9.48 22.0007 9.71733 22 10C21.9993 10.2827 21.9033 10.5203 21.712 10.713C21.5207 10.9057 21.2833 11.0013 21 11H15ZM15 15C14.7167 15 14.4793 14.904 14.288 14.712C14.0967 14.52 14.0007 14.2827 14 14C13.9993 13.7173 14.0953 13.48 14.288 13.288C14.4807 13.096 14.718 13 15 13H21C21.2833 13 21.521 13.096 21.713 13.288C21.905 13.48 22.0007 13.7173 22 14C21.9993 14.2827 21.9033 14.5203 21.712 14.713C21.5207 14.9057 21.2833 15.0013 21 15H15ZM8 14C7.16667 14 6.45833 13.7083 5.875 13.125C5.29167 12.5417 5 11.8333 5 11C5 10.1667 5.29167 9.45833 5.875 8.875C6.45833 8.29167 7.16667 8 8 8C8.83333 8 9.54167 8.29167 10.125 8.875C10.7083 9.45833 11 10.1667 11 11C11 11.8333 10.7083 12.5417 10.125 13.125C9.54167 13.7083 8.83333 14 8 14ZM2 19V18.1C2 17.75 2.08333 17.4167 2.25 17.1C2.41667 16.7833 2.65 16.5333 2.95 16.35C3.7 15.9 4.496 15.5627 5.338 15.338C6.18 15.1133 7.06733 15.0007 8 15C8.93267 14.9993 9.82033 15.112 10.663 15.338C11.5057 15.564 12.3013 15.9013 13.05 16.35C13.35 16.5333 13.5833 16.7833 13.75 17.1C13.9167 17.4167 14 17.75 14 18.1V19C14 19.2833 13.904 19.521 13.712 19.713C13.52 19.905 13.2827 20.0007 13 20H3C2.71667 20 2.47933 19.904 2.288 19.712C2.09667 19.52 2.00067 19.2827 2 19ZM4.15 18H11.85C11.2667 17.6667 10.65 17.4167 10 17.25C9.35 17.0833 8.68333 17 8 17C7.31667 17 6.65 17.0833 6 17.25C5.35 17.4167 4.73333 17.6667 4.15 18ZM8 12C8.28333 12 8.521 11.904 8.713 11.712C8.905 11.52 9.00067 11.2827 9 11C8.99933 10.7173 8.90333 10.48 8.712 10.288C8.52067 10.096 8.28333 10 8 10C7.71667 10 7.47933 10.096 7.288 10.288C7.09667 10.48 7.00067 10.7173 7 11C6.99933 11.2827 7.09533 11.5203 7.288 11.713C7.48067 11.9057 7.718 12.0013 8 12Z" fill="white"/>
                    </svg>