     <svg width="24" height="24" viewBox="0 0 24 24" fill="none" stroke="currentColor"
                       xmlns="http://www.w3.org/2000/svg">
                    <path fill-rule="evenodd" clip-rule="evenodd"
                          d="M13.5583 1.99423C13.6148 1.9135 13.6867 1.8447 13.7698 1.79175C13.8529 1.73881 13.9456 1.70277 14.0427 1.68568C14.1397 1.66859 14.2392 1.6708 14.3354 1.69217C14.4316 1.71354 14.5226 1.75365 14.6033 1.81023L21.1563 6.39823C21.2611 6.47154 21.3453 6.57042 21.4011 6.68547C21.4569 6.80053 21.4823 6.92793 21.475 7.05558C21.4677 7.18323 21.4279 7.30689 21.3593 7.41482C21.2908 7.52275 21.1957 7.61135 21.0833 7.67223L19.2733 8.65223L12.0733 18.9332C11.5303 19.7092 10.7203 20.6462 9.6433 21.1332C8.4963 21.6512 7.1463 21.6132 5.7123 20.6102C4.2783 19.6072 3.7813 18.3502 3.8753 17.0952C3.9653 15.9152 4.5683 14.8342 5.1113 14.0582L13.5583 1.99423ZM14.3573 3.46823L6.3403 14.9182C5.8473 15.6222 5.4303 16.4342 5.3713 17.2082C5.3193 17.9072 5.5483 18.6642 6.5713 19.3812C7.5953 20.0982 8.3863 20.0552 9.0253 19.7662C9.7323 19.4462 10.3523 18.7772 10.8453 18.0732L18.1453 7.64723C18.2122 7.55152 18.3006 7.47276 18.4033 7.41723L19.3023 6.93123L14.3573 3.46823Z"
                          fill="#475569" />
                    <path fill-rule="evenodd" clip-rule="evenodd"
                          d="M13.5583 1.99423C13.6148 1.9135 13.6867 1.8447 13.7698 1.79175C13.8529 1.73881 13.9456 1.70277 14.0427 1.68568C14.1397 1.66859 14.2392 1.6708 14.3354 1.69217C14.4316 1.71354 14.5226 1.75365 14.6033 1.81023L21.1563 6.39823C21.2611 6.47154 21.3453 6.57042 21.4011 6.68547C21.4569 6.80053 21.4823 6.92793 21.475 7.05558C21.4677 7.18323 21.4279 7.30689 21.3593 7.41482C21.2908 7.52275 21.1957 7.61135 21.0833 7.67223L19.2733 8.65223L12.0733 18.9332C11.5303 19.7092 10.7203 20.6462 9.6433 21.1332C8.4963 21.6512 7.1463 21.6132 5.7123 20.6102C4.2783 19.6072 3.7813 18.3502 3.8753 17.0952C3.9653 15.9152 4.5683 14.8342 5.1113 14.0582L13.5583 1.99423ZM14.3573 3.46823L9.5333 10.3582C12.0003 10.8502 12.9003 9.50023 16.2933 10.2922L18.1453 7.64723C18.2122 7.55152 18.3006 7.47276 18.4033 7.41723L19.3023 6.93123L14.3573 3.46823Z"
                          fill="white" />
                  </svg>