  <svg width="24" height="24" stroke="currentColor" viewBox="0 0 24 24" fill="none"
                   xmlns="http://www.w3.org/2000/svg">
                <path fill-rule="evenodd" clip-rule="evenodd"
                      d="M14.7521 1.914C14.1918 2.68512 13.852 3.59423 13.7692 4.5438C13.6864 5.49337 13.8636 6.44758 14.282 7.30406C14.7003 8.16054 15.3439 8.88697 16.1437 9.40543C16.9436 9.92389 17.8695 10.2148 18.8221 10.247V10.258C18.8371 10.456 18.8521 10.659 18.8721 10.855C19.1091 13.102 19.6491 14.645 20.1681 15.658C20.5131 16.333 20.8521 16.781 21.0921 17.052C21.1974 17.1715 21.311 17.2834 21.4321 17.387L21.4421 17.393C21.5704 17.4861 21.6659 17.6175 21.7149 17.7683C21.7639 17.9191 21.7638 18.0815 21.7147 18.2323C21.6656 18.383 21.57 18.5143 21.4416 18.6074C21.3132 18.7004 21.1586 18.7503 21.0001 18.75H3.00009C2.84189 18.7498 2.6878 18.6996 2.55986 18.6066C2.43192 18.5135 2.33667 18.3824 2.28775 18.232C2.23882 18.0815 2.23872 17.9195 2.28745 17.769C2.33619 17.6184 2.43127 17.4872 2.55909 17.394L2.56709 17.387L2.63109 17.333C2.69109 17.279 2.78809 17.188 2.90809 17.052C3.14809 16.782 3.48709 16.334 3.83209 15.659C4.52209 14.31 5.25009 12.03 5.25009 8.4C5.25009 6.519 5.95009 4.706 7.21009 3.362C8.47209 2.016 10.1941 1.25 12.0001 1.25C12.3828 1.25 12.7604 1.28367 13.1331 1.351C13.3711 1.394 14.1511 1.637 14.7521 1.914Z"
                      fill="white" />
                <path fill-rule="evenodd" clip-rule="evenodd"
                      d="M15.25 5C15.25 4.00544 15.6451 3.05161 16.3484 2.34835C17.0516 1.64509 18.0055 1.25 19 1.25C19.9946 1.25 20.9484 1.64509 21.6517 2.34835C22.3549 3.05161 22.75 4.00544 22.75 5C22.75 5.99456 22.3549 6.94839 21.6517 7.65165C20.9484 8.35491 19.9946 8.75 19 8.75C18.0055 8.75 17.0516 8.35491 16.3484 7.65165C15.6451 6.94839 15.25 5.99456 15.25 5ZM9.89404 20.351C9.97926 20.3016 10.0734 20.2695 10.171 20.2565C10.2687 20.2435 10.3679 20.2498 10.4631 20.2752C10.5583 20.3005 10.6475 20.3444 10.7258 20.4042C10.804 20.4641 10.8697 20.5388 10.919 20.624C11.0289 20.8133 11.1867 20.9704 11.3764 21.0796C11.5661 21.1889 11.7811 21.2464 12 21.2464C12.2189 21.2464 12.434 21.1889 12.6237 21.0796C12.8134 20.9704 12.9711 20.8133 13.081 20.624C13.1305 20.5388 13.1962 20.4641 13.2745 20.4043C13.3528 20.3445 13.4421 20.3007 13.5373 20.2754C13.6326 20.2501 13.7319 20.2438 13.8295 20.2568C13.9272 20.2699 14.0213 20.3021 14.1065 20.3515C14.1918 20.4009 14.2664 20.4667 14.3262 20.545C14.3861 20.6233 14.4299 20.7126 14.4552 20.8078C14.4805 20.903 14.4868 21.0023 14.4737 21.1C14.4607 21.1976 14.4285 21.2918 14.379 21.377C14.1373 21.7938 13.7903 22.1399 13.3728 22.3804C12.9553 22.6209 12.4819 22.7476 12 22.7476C11.5182 22.7476 11.0448 22.6209 10.6273 22.3804C10.2097 22.1399 9.86274 21.7938 9.62104 21.377C9.5715 21.2917 9.53926 21.1975 9.52617 21.0998C9.51308 21.002 9.51939 20.9027 9.54475 20.8074C9.57011 20.7121 9.61401 20.6227 9.67394 20.5444C9.73388 20.4661 9.80867 20.4004 9.89404 20.351Z"
                      fill="white" />
              </svg>