  <svg width="24" height="24" viewBox="0 0 24 24" fill="none" xmlns="http://www.w3.org/2000/svg">
                      <path d="M6 20C5.45 20 4.97933 19.8043 4.588 19.413C4.19667 19.0217 4.00067 18.5507 4 18C3.99934 17.4493 4.19533 16.9787 4.588 16.588C4.98067 16.1973 5.45133 16.0013 6 16C6.54867 15.9987 7.01967 16.1947 7.413 16.588C7.80634 16.9813 8.002 17.452 8 18C7.998 18.548 7.80234 19.019 7.413 19.413C7.02367 19.807 6.55267 20.0027 6 20ZM6 14C5.45 14 4.97933 13.8043 4.588 13.413C4.19667 13.0217 4.00067 12.5507 4 12C3.99934 11.4493 4.19533 10.9787 4.588 10.588C4.98067 10.1973 5.45133 10.0013 6 10C6.54867 9.99867 7.01967 10.1947 7.413 10.588C7.80634 10.9813 8.002 11.452 8 12C7.998 12.548 7.80234 13.019 7.413 13.413C7.02367 13.807 6.55267 14.0027 6 14ZM6 8.00001C5.45 8.00001 4.97933 7.80434 4.588 7.41301C4.19667 7.02167 4.00067 6.55067 4 6.00001C3.99934 5.44934 4.19533 4.97867 4.588 4.58801C4.98067 4.19734 5.45133 4.00134 6 4.00001C6.54867 3.99867 7.01967 4.19467 7.413 4.58801C7.80634 4.98134 8.002 5.45201 8 6.00001C7.998 6.54801 7.80234 7.01901 7.413 7.41301C7.02367 7.80701 6.55267 8.00267 6 8.00001ZM12 8.00001C11.45 8.00001 10.9793 7.80434 10.588 7.41301C10.1967 7.02167 10.0007 6.55067 10 6.00001C9.99934 5.44934 10.1953 4.97867 10.588 4.58801C10.9807 4.19734 11.4513 4.00134 12 4.00001C12.5487 3.99867 13.0197 4.19467 13.413 4.58801C13.8063 4.98134 14.002 5.45201 14 6.00001C13.998 6.54801 13.8023 7.01901 13.413 7.41301C13.0237 7.80701 12.5527 8.00267 12 8.00001ZM18 8.00001C17.45 8.00001 16.9793 7.80434 16.588 7.41301C16.1967 7.02167 16.0007 6.55067 16 6.00001C15.9993 5.44934 16.1953 4.97867 16.588 4.58801C16.9807 4.19734 17.4513 4.00134 18 4.00001C18.5487 3.99867 19.0197 4.19467 19.413 4.58801C19.8063 4.98134 20.002 5.45201 20 6.00001C19.998 6.54801 19.8023 7.01901 19.413 7.41301C19.0237 7.80701 18.5527 8.00267 18 8.00001ZM12 14C11.45 14 10.9793 13.8043 10.588 13.413C10.1967 13.0217 10.0007 12.5507 10 12C9.99934 11.4493 10.1953 10.9787 10.588 10.588C10.9807 10.1973 11.4513 10.0013 12 10C12.5487 9.99867 13.0197 10.1947 13.413 10.588C13.8063 10.9813 14.002 11.452 14 12C13.998 12.548 13.8023 13.019 13.413 13.413C13.0237 13.807 12.5527 14.0027 12 14ZM13 20V16.925L18.525 11.425C18.675 11.275 18.8417 11.1667 19.025 11.1C19.2083 11.0333 19.3917 11 19.575 11C19.775 11 19.9667 11.0377 20.15 11.113C20.3333 11.1883 20.5 11.3007 20.65 11.45L21.575 12.375C21.7083 12.525 21.8127 12.6917 21.888 12.875C21.9633 13.0583 22.0007 13.2417 22 13.425C21.9993 13.6083 21.966 13.796 21.9 13.988C21.834 14.18 21.7257 14.3507 21.575 14.5L16.075 20H13ZM19.575 14.4L20.5 13.425L19.575 12.5L18.625 13.45L19.575 14.4Z" fill="white"/>
                    </svg>