     <svg width="24" height="24" viewBox="0 0 24 24" fill="none" xmlns="http://www.w3.org/2000/svg">
                      <path fill-rule="evenodd" clip-rule="evenodd" d="M6.06022 4.85984C7.6356 3.28446 9.77228 2.39941 12.0002 2.39941C14.2281 2.39941 16.3648 3.28446 17.9402 4.85984C19.5156 6.43523 20.4006 8.57191 20.4006 10.7998C20.4006 13.0278 19.5156 15.1645 17.9402 16.7398L12.0002 22.6798L6.06022 16.7398C5.28011 15.9598 4.6613 15.0338 4.2391 14.0146C3.81691 12.9954 3.59961 11.903 3.59961 10.7998C3.59961 9.69667 3.81691 8.6043 4.2391 7.5851C4.6613 6.56591 5.28011 5.63987 6.06022 4.85984ZM12.0002 13.1998C12.6367 13.1998 13.2472 12.947 13.6973 12.4969C14.1474 12.0468 14.4002 11.4364 14.4002 10.7998C14.4002 10.1633 14.1474 9.55287 13.6973 9.10279C13.2472 8.6527 12.6367 8.39984 12.0002 8.39984C11.3637 8.39984 10.7532 8.6527 10.3032 9.10279C9.85307 9.55287 9.60022 10.1633 9.60022 10.7998C9.60022 11.4364 9.85307 12.0468 10.3032 12.4969C10.7532 12.947 11.3637 13.1998 12.0002 13.1998Z" fill="white"/>
                    </svg>